<svg version="1.1" id="Layer_1" xmlns="http://www.w3.org/2000/svg" xmlns:xlink="http://www.w3.org/1999/xlink" x="0px" y="0px"
	 width="100%" viewBox="0 0 2000 1500" enable-background="new 0 0 2000 1500" xml:space="preserve">
<path fill="#FFFFFF" opacity="1.000000" stroke="none" 
	d="
M1229.000000,1501.000000 
	C819.333435,1501.000000 410.166901,1501.000000 1.000274,1501.000000 
	C1.000183,1001.000244 1.000183,501.000549 1.000092,1.000610 
	C667.666199,1.000407 1334.332397,1.000407 2000.998901,1.000203 
	C2000.999268,500.999390 2000.999268,1000.998779 2000.999634,1500.999023 
	C1743.833374,1501.000000 1486.666626,1501.000000 1229.000000,1501.000000 
M834.083984,811.198975 
	C824.864563,810.800964 816.307983,813.278320 808.127441,817.276062 
	C801.912537,820.313049 797.332214,824.795410 794.942444,831.525269 
	C793.030457,836.909668 790.553894,842.093628 788.032410,848.066406 
	C773.885803,829.073669 755.895691,816.966492 734.110046,810.486755 
	C751.728088,794.436279 769.001099,779.033386 785.865845,763.195862 
	C794.346924,755.231323 802.349060,746.710938 810.087952,738.014893 
	C817.960693,729.168518 822.142273,718.590515 822.412659,706.617065 
	C822.599548,698.340576 818.664734,693.768982 810.390869,693.135193 
	C807.614807,692.922485 804.779114,693.658203 801.969421,693.669922 
	C798.884460,693.682800 795.636658,693.924683 792.737732,693.095398 
	C768.134277,686.057190 743.586975,678.821960 719.040771,671.585144 
	C713.489929,669.948669 708.011108,668.068542 702.494812,666.314209 
	C699.066833,665.223999 695.671082,663.409119 692.190796,663.221802 
	C681.107727,662.625244 671.279297,666.513245 662.574707,673.205994 
	C658.259094,676.524170 656.162781,681.001709 655.984436,686.588257 
	C654.453735,734.540771 652.860535,782.491455 651.091370,830.435486 
	C650.993042,833.101990 649.660156,836.056274 648.059875,838.267212 
	C644.291321,843.473694 644.094849,848.363464 647.519165,852.896301 
	C648.943420,854.781738 650.030090,857.485046 650.012268,859.806763 
	C649.885986,876.297729 649.406738,892.785767 649.096130,909.275696 
	C648.928528,918.171570 652.178955,921.682495 661.249023,921.905334 
	C673.730530,922.212097 684.730652,917.883789 694.500305,910.330627 
	C698.234741,907.443542 700.034973,903.604797 700.172058,898.676331 
	C700.704041,879.548157 701.512024,860.427612 702.233032,840.878357 
	C713.206177,843.531799 722.629089,848.591980 730.678162,856.008240 
	C747.898499,871.874573 757.734314,891.555115 760.176697,914.865112 
	C761.520142,927.686462 765.657471,931.591064 778.502869,930.949036 
	C795.408997,930.104126 806.980286,920.270020 816.472351,907.365845 
	C817.607666,905.822327 818.158630,903.739441 818.610474,901.819519 
	C824.642761,876.184082 833.302368,851.434448 843.444153,827.162659 
	C847.507141,817.439026 845.208191,813.383118 834.083984,811.198975 
M276.866882,807.366943 
	C270.909882,814.736389 266.332275,822.755371 265.452606,832.415405 
	C265.003540,837.346985 265.170746,842.421875 269.643463,845.548645 
	C274.061462,848.637329 278.905731,847.351685 283.415558,845.197693 
	C286.004425,843.961121 288.455902,842.436890 291.622284,840.679810 
	C290.812103,846.060181 289.854004,850.623108 289.483704,855.233215 
	C288.527344,867.139160 286.825531,879.105530 287.294373,890.973877 
	C287.833252,904.615112 298.351013,909.540771 310.254578,902.882385 
	C311.990143,901.911560 313.635590,900.745300 315.207214,899.521179 
	C326.481110,890.740234 335.139343,879.926453 340.073853,866.429321 
	C348.750275,842.697083 354.198914,818.273254 354.997040,792.937012 
	C355.293701,783.519043 358.089050,775.295593 365.447052,769.015198 
	C373.678253,761.989502 381.865723,754.911682 390.155884,747.956299 
	C420.131989,722.806702 450.467682,698.070862 479.943909,672.349426 
	C488.817871,664.605835 496.411835,654.834656 502.670441,644.794434 
	C510.771362,631.798584 506.695984,622.524902 491.822083,619.172913 
	C481.550415,616.858032 470.767090,616.388489 460.178497,615.985352 
	C429.063782,614.800659 397.934753,613.956177 366.806030,613.194153 
	C353.030273,612.856934 339.108246,611.804199 325.490540,613.276611 
	C305.236359,615.466614 293.075348,628.858521 292.052338,649.235535 
	C291.541443,659.411804 292.303162,669.995789 294.605957,679.903381 
	C300.858093,706.802368 302.556488,733.782959 300.094666,761.237793 
	C298.864777,774.954346 295.498718,787.349915 285.400238,797.306519 
	C282.447113,800.218079 279.968597,803.611084 276.866882,807.366943 
M1565.485962,836.087036 
	C1566.610474,853.318176 1569.684937,870.166138 1577.209717,885.806824 
	C1586.304810,904.711243 1601.213623,915.774353 1622.624878,916.509338 
	C1637.797729,917.030090 1651.365234,911.667786 1663.804932,903.392883 
	C1692.438354,884.346069 1711.129150,857.473816 1723.507935,825.958923 
	C1734.497925,797.979919 1738.202515,769.284119 1728.859009,740.022095 
	C1711.072998,684.319519 1660.941772,670.377808 1619.220459,688.067261 
	C1602.865723,695.001587 1590.360352,706.880371 1579.100586,720.278320 
	C1564.709473,737.402161 1553.878662,756.556702 1546.153931,777.496521 
	C1542.562256,787.232666 1545.963623,792.692993 1556.270264,793.653503 
	C1559.808228,793.983215 1563.402954,793.705872 1566.407104,793.705872 
	C1566.070801,807.610962 1565.737793,821.381592 1565.485962,836.087036 
M592.271667,689.202271 
	C561.419189,675.330566 532.176575,678.628357 505.120422,698.463196 
	C485.987488,712.489563 472.156982,731.320740 461.105408,752.094604 
	C456.439911,760.864380 452.549225,770.116272 449.104584,779.443787 
	C446.285583,787.077148 449.441345,792.026062 457.262909,793.142090 
	C461.606873,793.761963 466.111877,793.253418 470.927307,793.253418 
	C470.741180,794.753113 470.580475,796.019287 470.427399,797.286438 
	C467.154816,824.371826 467.834473,851.145264 477.020813,877.187622 
	C483.995483,896.959839 496.280182,911.516541 517.761169,915.637451 
	C535.580261,919.055847 551.732544,913.510437 566.517944,903.846802 
	C594.851624,885.328003 613.460693,858.998657 626.082947,828.116150 
	C636.375305,802.934387 640.784058,776.895630 634.879639,749.946594 
	C629.233337,724.175659 616.607239,702.955750 592.271667,689.202271 
M1199.142700,719.646545 
	C1194.200073,726.338013 1188.482788,732.600525 1184.486938,739.816284 
	C1177.582275,752.285156 1171.324707,765.161438 1165.609985,778.223022 
	C1161.793457,786.946350 1165.529419,792.412903 1175.047485,793.530640 
	C1178.904907,793.983643 1182.859985,793.605530 1186.972656,793.605530 
	C1186.860596,794.805969 1186.791382,795.946899 1186.643066,797.077515 
	C1183.088623,824.164856 1183.958496,850.914734 1193.041260,876.970154 
	C1200.007690,896.954651 1212.407104,911.624329 1234.120605,915.683472 
	C1251.942993,919.015137 1268.100464,913.445740 1282.831055,903.696777 
	C1313.491577,883.404785 1332.897461,854.509888 1345.061157,820.410522 
	C1354.648071,793.534790 1356.955811,766.235901 1347.972168,738.634949 
	C1333.142334,693.071594 1291.548218,671.016052 1246.696533,685.040466 
	C1227.245728,691.122375 1212.515137,703.899536 1199.142700,719.646545 
M956.568115,654.142212 
	C957.742004,641.707092 958.866455,629.266968 960.114258,616.839233 
	C960.604309,611.959045 959.103271,607.873840 955.413391,604.806091 
	C944.636719,595.846252 932.334900,591.734802 918.312805,594.089966 
	C912.083252,595.136230 908.668335,599.018860 907.991943,605.257690 
	C906.573914,618.336304 905.279114,631.428223 903.899841,644.511047 
	C902.769409,655.233093 901.589966,665.949951 900.429382,676.695740 
	C897.203918,677.169678 894.412537,677.593262 891.617249,677.988464 
	C879.918823,679.642517 868.177429,681.041809 856.534119,683.019226 
	C848.125122,684.447327 844.743774,690.609985 847.642822,697.963379 
	C853.341064,712.416870 860.375183,716.751709 875.464905,715.086487 
	C877.615356,714.849182 879.753967,714.505249 881.904785,714.272095 
	C886.753052,713.746521 891.605469,713.259338 896.551086,712.746704 
	C893.874634,741.768311 890.857727,769.927429 888.779358,798.155640 
	C886.101074,834.531799 884.201355,870.965088 881.895325,907.369263 
	C881.544617,912.905884 883.821838,917.088562 887.974670,920.343140 
	C895.762024,926.445984 904.638855,930.246765 914.497437,930.867188 
	C931.084106,931.911011 934.495422,926.352661 935.001709,912.567139 
	C936.052979,883.941345 937.627991,855.317993 939.788513,826.754272 
	C942.061768,796.701111 945.238159,766.715698 948.087891,736.707031 
	C949.011475,726.981750 950.149597,717.276855 951.196289,707.499390 
	C955.268311,706.959534 958.882812,706.490723 962.494263,705.999390 
	C971.725037,704.743713 981.039734,703.904846 990.158020,702.083923 
	C997.759155,700.565918 1000.453064,694.805054 997.898499,687.735718 
	C993.232483,674.823303 984.253418,668.906433 970.791565,669.912781 
	C968.634155,670.074036 966.491333,670.428345 964.334351,670.597900 
	C961.265747,670.838867 958.190186,670.991516 954.878357,671.196716 
	C955.438538,665.317993 955.927979,660.181885 956.568115,654.142212 
M1013.096619,666.535706 
	C1010.159668,668.705200 1007.048889,670.679260 1004.331787,673.095886 
	C1001.257019,675.830627 999.095947,679.219299 1000.015991,683.668274 
	C1000.713440,687.040833 1001.688599,690.358521 1002.320862,693.741577 
	C1007.934265,723.774231 1010.414246,754.101929 1010.964233,784.623779 
	C1011.020203,787.727539 1010.128418,789.469910 1007.388733,790.820068 
	C1001.519714,793.712280 997.079468,798.157776 994.645813,804.292175 
	C992.640381,809.347229 994.330688,812.356506 999.710754,813.258545 
	C1003.085449,813.824402 1006.554932,813.825134 1010.107483,814.088745 
	C1010.107483,815.537476 1010.161926,816.679993 1010.099609,817.816040 
	C1008.529297,846.459045 1004.587463,874.776062 998.367249,902.776733 
	C995.964966,913.590637 999.044434,917.733276 1010.229370,917.803162 
	C1021.915222,917.876221 1032.652100,914.312256 1041.649780,906.899231 
	C1044.773193,904.325867 1047.714844,900.205933 1048.493652,896.339905 
	C1052.104248,878.417664 1055.082764,860.361389 1057.959717,842.300903 
	C1059.287231,833.968201 1059.863525,825.515808 1060.803711,816.903687 
	C1062.784546,816.903687 1064.425049,816.843384 1066.060181,816.912903 
	C1085.363159,817.734192 1104.672485,818.439941 1123.964722,819.465454 
	C1134.159546,820.007385 1142.534546,816.380798 1149.642212,809.442627 
	C1153.640503,805.539612 1157.626587,801.093506 1155.498291,795.051025 
	C1153.396851,789.085022 1147.406982,788.534058 1142.134033,788.116272 
	C1126.198730,786.853638 1110.239868,785.872131 1094.283325,784.895325 
	C1083.664917,784.245300 1073.034668,783.790771 1062.548340,783.255798 
	C1061.293823,761.799744 1060.053345,740.585266 1058.800903,719.166077 
	C1060.303589,719.783875 1061.961670,720.429626 1063.591064,721.140808 
	C1095.095215,734.892517 1126.179077,735.110291 1156.609985,718.021606 
	C1167.521729,711.894043 1176.557617,703.535706 1183.433472,693.073303 
	C1188.558716,685.274475 1186.017334,679.448914 1177.011597,678.774109 
	C1164.161987,677.811462 1152.145020,680.792236 1142.069336,689.197205 
	C1136.355713,693.963501 1130.206665,697.046997 1122.719727,697.358704 
	C1111.943237,697.807312 1101.859131,695.120056 1092.543945,689.996460 
	C1077.105591,681.505188 1061.739014,672.860779 1046.638672,663.787354 
	C1039.781616,659.667175 1032.941162,658.848694 1025.635498,661.131104 
	C1021.540649,662.410339 1017.681335,664.443848 1013.096619,666.535706 
M1396.527954,718.897644 
	C1395.610962,726.837891 1394.656616,734.774109 1393.783081,742.719116 
	C1387.777222,797.343567 1381.768311,851.967651 1375.813721,906.597717 
	C1374.830688,915.616760 1378.297729,919.440247 1387.445190,920.093750 
	C1398.757080,920.901978 1408.714111,917.220398 1418.007080,911.163269 
	C1424.148193,907.160645 1427.433105,901.642395 1427.950439,894.223633 
	C1428.494507,886.420593 1429.510498,878.648987 1430.379639,870.870361 
	C1434.244751,836.282654 1438.126587,801.696777 1442.010742,767.111206 
	C1445.467407,736.330750 1449.067993,705.565674 1452.361084,674.767700 
	C1455.725220,643.304382 1458.884033,611.818054 1461.934692,580.322632 
	C1462.862305,570.746826 1459.445923,567.144714 1449.698364,567.247803 
	C1437.822998,567.373352 1427.018555,571.281677 1418.064209,578.997681 
	C1415.201904,581.464172 1412.879272,585.828735 1412.397827,589.591919 
	C1406.926636,632.368347 1401.860596,675.196594 1396.527954,718.897644 
M1526.081909,839.743896 
	C1528.812134,788.501099 1531.539307,737.258057 1534.275757,686.015625 
	C1534.750000,677.136108 1531.623169,673.502991 1522.652710,672.859619 
	C1510.611206,671.996155 1500.038452,675.903259 1490.649902,683.210144 
	C1486.950684,686.089111 1484.879883,689.924561 1484.631226,694.781677 
	C1483.830322,710.421814 1482.879639,726.054260 1482.004028,741.690674 
	C1480.122559,775.292053 1478.251221,808.893982 1476.376709,842.495728 
	C1474.984741,867.447937 1473.555298,892.398193 1472.226562,917.353760 
	C1471.809814,925.180481 1474.833496,928.952332 1482.358887,930.164368 
	C1493.483887,931.956055 1503.381226,928.413574 1512.729492,922.809021 
	C1519.021729,919.036621 1522.421875,913.683289 1522.744507,906.087036 
	C1523.670532,884.281799 1524.923828,862.490479 1526.081909,839.743896 
M1503.729980,593.164001 
	C1500.270386,595.436279 1496.477783,597.345276 1493.466553,600.106384 
	C1491.402954,601.998535 1489.651611,604.920715 1489.103149,607.652039 
	C1487.107910,617.588501 1485.517822,627.615662 1484.086060,637.652954 
	C1482.973755,645.451111 1485.831665,649.317505 1493.824585,650.174072 
	C1507.331421,651.621521 1519.096558,647.166992 1528.831177,637.868286 
	C1530.946289,635.848022 1532.424927,632.552795 1532.976685,629.615662 
	C1534.786011,619.980896 1536.003296,610.235962 1537.506104,600.542358 
	C1538.776733,592.345215 1535.953491,588.696960 1527.610962,588.084778 
	C1519.441162,587.485291 1511.783325,589.481262 1503.729980,593.164001 
z"/>
<path fill="#3F3F3F" opacity="1.000000" stroke="none" 
	d="
M834.515137,811.235535 
	C845.208191,813.383118 847.507141,817.439026 843.444153,827.162659 
	C833.302368,851.434448 824.642761,876.184082 818.610474,901.819519 
	C818.158630,903.739441 817.607666,905.822327 816.472351,907.365845 
	C806.980286,920.270020 795.408997,930.104126 778.502869,930.949036 
	C765.657471,931.591064 761.520142,927.686462 760.176697,914.865112 
	C757.734314,891.555115 747.898499,871.874573 730.678162,856.008240 
	C722.629089,848.591980 713.206177,843.531799 702.233032,840.878357 
	C701.512024,860.427612 700.704041,879.548157 700.172058,898.676331 
	C700.034973,903.604797 698.234741,907.443542 694.500305,910.330627 
	C684.730652,917.883789 673.730530,922.212097 661.249023,921.905334 
	C652.178955,921.682495 648.928528,918.171570 649.096130,909.275696 
	C649.406738,892.785767 649.885986,876.297729 650.012268,859.806763 
	C650.030090,857.485046 648.943420,854.781738 647.519165,852.896301 
	C644.094849,848.363464 644.291321,843.473694 648.059875,838.267212 
	C649.660156,836.056274 650.993042,833.101990 651.091370,830.435486 
	C652.860535,782.491455 654.453735,734.540771 655.984436,686.588257 
	C656.162781,681.001709 658.259094,676.524170 662.574707,673.205994 
	C671.279297,666.513245 681.107727,662.625244 692.190796,663.221802 
	C695.671082,663.409119 699.066833,665.223999 702.494812,666.314209 
	C708.011108,668.068542 713.489929,669.948669 719.040771,671.585144 
	C743.586975,678.821960 768.134277,686.057190 792.737732,693.095398 
	C795.636658,693.924683 798.884460,693.682800 801.969421,693.669922 
	C804.779114,693.658203 807.614807,692.922485 810.390869,693.135193 
	C818.664734,693.768982 822.599548,698.340576 822.412659,706.617065 
	C822.142273,718.590515 817.960693,729.168518 810.087952,738.014893 
	C802.349060,746.710938 794.346924,755.231323 785.865845,763.195862 
	C769.001099,779.033386 751.728088,794.436279 734.110046,810.486755 
	C755.895691,816.966492 773.885803,829.073669 788.032410,848.066406 
	C790.553894,842.093628 793.030457,836.909668 794.942444,831.525269 
	C797.332214,824.795410 801.912537,820.313049 808.127441,817.276062 
	C816.307983,813.278320 824.864563,810.800964 834.515137,811.235535 
M704.975830,729.495117 
	C704.475037,749.861938 703.974243,770.228760 703.452148,791.464783 
	C716.456970,780.657898 729.025757,770.846008 740.839417,760.196411 
	C750.314026,751.655396 758.934937,742.157898 767.780579,732.937073 
	C769.403564,731.245239 770.288330,728.845093 771.563110,726.688477 
	C749.354309,720.260071 727.729004,714.000549 704.991272,707.419067 
	C704.991272,714.965515 704.991272,721.731384 704.975830,729.495117 
z"/>
<path fill="#3F3F3F" opacity="1.000000" stroke="none" 
	d="
M277.069702,807.075195 
	C279.968597,803.611084 282.447113,800.218079 285.400238,797.306519 
	C295.498718,787.349915 298.864777,774.954346 300.094666,761.237793 
	C302.556488,733.782959 300.858093,706.802368 294.605957,679.903381 
	C292.303162,669.995789 291.541443,659.411804 292.052338,649.235535 
	C293.075348,628.858521 305.236359,615.466614 325.490540,613.276611 
	C339.108246,611.804199 353.030273,612.856934 366.806030,613.194153 
	C397.934753,613.956177 429.063782,614.800659 460.178497,615.985352 
	C470.767090,616.388489 481.550415,616.858032 491.822083,619.172913 
	C506.695984,622.524902 510.771362,631.798584 502.670441,644.794434 
	C496.411835,654.834656 488.817871,664.605835 479.943909,672.349426 
	C450.467682,698.070862 420.131989,722.806702 390.155884,747.956299 
	C381.865723,754.911682 373.678253,761.989502 365.447052,769.015198 
	C358.089050,775.295593 355.293701,783.519043 354.997040,792.937012 
	C354.198914,818.273254 348.750275,842.697083 340.073853,866.429321 
	C335.139343,879.926453 326.481110,890.740234 315.207214,899.521179 
	C313.635590,900.745300 311.990143,901.911560 310.254578,902.882385 
	C298.351013,909.540771 287.833252,904.615112 287.294373,890.973877 
	C286.825531,879.105530 288.527344,867.139160 289.483704,855.233215 
	C289.854004,850.623108 290.812103,846.060181 291.622284,840.679810 
	C288.455902,842.436890 286.004425,843.961121 283.415558,845.197693 
	C278.905731,847.351685 274.061462,848.637329 269.643463,845.548645 
	C265.170746,842.421875 265.003540,837.346985 265.452606,832.415405 
	C266.332275,822.755371 270.909882,814.736389 277.069702,807.075195 
M379.234711,673.261719 
	C370.394501,672.533020 361.554321,671.804260 352.680237,671.072754 
	C354.224030,690.558228 355.712128,709.340820 357.211914,728.270569 
	C377.016174,710.867920 396.510681,693.737427 416.175018,676.457703 
	C403.939148,675.408325 392.044312,674.388123 379.234711,673.261719 
z"/>
<path fill="#3F3F3F" opacity="1.000000" stroke="none" 
	d="
M1565.445312,835.619629 
	C1565.737793,821.381592 1566.070801,807.610962 1566.407104,793.705872 
	C1563.402954,793.705872 1559.808228,793.983215 1556.270264,793.653503 
	C1545.963623,792.692993 1542.562256,787.232666 1546.153931,777.496521 
	C1553.878662,756.556702 1564.709473,737.402161 1579.100586,720.278320 
	C1590.360352,706.880371 1602.865723,695.001587 1619.220459,688.067261 
	C1660.941772,670.377808 1711.072998,684.319519 1728.859009,740.022095 
	C1738.202515,769.284119 1734.497925,797.979919 1723.507935,825.958923 
	C1711.129150,857.473816 1692.438354,884.346069 1663.804932,903.392883 
	C1651.365234,911.667786 1637.797729,917.030090 1622.624878,916.509338 
	C1601.213623,915.774353 1586.304810,904.711243 1577.209717,885.806824 
	C1569.684937,870.166138 1566.610474,853.318176 1565.445312,835.619629 
M1621.694580,857.697571 
	C1625.278931,864.607422 1628.445923,871.780518 1632.583252,878.341675 
	C1635.750122,883.364136 1636.975830,883.115356 1641.613647,879.299133 
	C1655.345703,867.999756 1663.786133,852.902710 1671.420410,837.298035 
	C1683.052368,813.522156 1688.383179,788.687866 1683.000488,762.282043 
	C1679.352295,744.385193 1670.709839,729.697083 1654.762939,719.999512 
	C1646.958496,715.253479 1640.418823,714.648254 1633.808350,717.738892 
	C1638.537842,722.337891 1635.870605,726.860779 1633.691284,731.407349 
	C1614.345215,771.766785 1608.565674,813.459534 1621.694580,857.697571 
z"/>
<path fill="#3F3F3F" opacity="1.000000" stroke="none" 
	d="
M592.583618,689.403442 
	C616.607239,702.955750 629.233337,724.175659 634.879639,749.946594 
	C640.784058,776.895630 636.375305,802.934387 626.082947,828.116150 
	C613.460693,858.998657 594.851624,885.328003 566.517944,903.846802 
	C551.732544,913.510437 535.580261,919.055847 517.761169,915.637451 
	C496.280182,911.516541 483.995483,896.959839 477.020813,877.187622 
	C467.834473,851.145264 467.154816,824.371826 470.427399,797.286438 
	C470.580475,796.019287 470.741180,794.753113 470.927307,793.253418 
	C466.111877,793.253418 461.606873,793.761963 457.262909,793.142090 
	C449.441345,792.026062 446.285583,787.077148 449.104584,779.443787 
	C452.549225,770.116272 456.439911,760.864380 461.105408,752.094604 
	C472.156982,731.320740 485.987488,712.489563 505.120422,698.463196 
	C532.176575,678.628357 561.419189,675.330566 592.583618,689.403442 
M572.910889,841.368408 
	C573.499268,840.176819 574.093201,838.987976 574.675232,837.793335 
	C586.664185,813.184143 592.037720,787.566101 585.991211,760.364990 
	C582.145203,743.063354 573.330688,729.025757 557.803345,719.771179 
	C551.382324,715.944031 544.612183,714.458435 536.991577,717.383972 
	C541.915039,721.908325 539.558411,726.392822 537.297241,731.032104 
	C520.985229,764.501038 514.269226,799.572632 520.003479,836.647461 
	C522.182861,850.738464 526.202209,864.217834 534.270813,876.190674 
	C539.121033,883.387817 540.395020,883.492065 546.769714,877.876221 
	C558.103760,867.891357 565.628967,855.173462 572.910889,841.368408 
z"/>
<path fill="#3F3F3F" opacity="1.000000" stroke="none" 
	d="
M1199.373535,719.377808 
	C1212.515137,703.899536 1227.245728,691.122375 1246.696533,685.040466 
	C1291.548218,671.016052 1333.142334,693.071594 1347.972168,738.634949 
	C1356.955811,766.235901 1354.648071,793.534790 1345.061157,820.410522 
	C1332.897461,854.509888 1313.491577,883.404785 1282.831055,903.696777 
	C1268.100464,913.445740 1251.942993,919.015137 1234.120605,915.683472 
	C1212.407104,911.624329 1200.007690,896.954651 1193.041260,876.970154 
	C1183.958496,850.914734 1183.088623,824.164856 1186.643066,797.077515 
	C1186.791382,795.946899 1186.860596,794.805969 1186.972656,793.605530 
	C1182.859985,793.605530 1178.904907,793.983643 1175.047485,793.530640 
	C1165.529419,792.412903 1161.793457,786.946350 1165.609985,778.223022 
	C1171.324707,765.161438 1177.582275,752.285156 1184.486938,739.816284 
	C1188.482788,732.600525 1194.200073,726.338013 1199.373535,719.377808 
M1255.662964,725.889282 
	C1254.629272,728.155640 1253.622437,730.434692 1252.557739,732.686462 
	C1236.177124,767.329590 1229.870239,803.415405 1236.960693,841.424500 
	C1239.363281,854.304260 1243.537231,866.504333 1251.152954,877.297974 
	C1255.313477,883.194641 1256.433960,883.241150 1261.624512,878.930298 
	C1272.604492,869.811523 1280.051392,858.016785 1286.743774,845.680115 
	C1300.482422,820.354065 1308.182007,793.760010 1303.016235,764.654358 
	C1299.600830,745.411011 1290.708130,729.607849 1273.394531,719.466736 
	C1267.135864,715.800781 1260.458130,714.482971 1254.090698,717.014587 
	C1254.714966,719.868469 1255.289307,722.494263 1255.662964,725.889282 
z"/>
<path fill="#3F3F3F" opacity="1.000000" stroke="none" 
	d="
M956.492798,654.593994 
	C955.927979,660.181885 955.438538,665.317993 954.878357,671.196716 
	C958.190186,670.991516 961.265747,670.838867 964.334351,670.597900 
	C966.491333,670.428345 968.634155,670.074036 970.791565,669.912781 
	C984.253418,668.906433 993.232483,674.823303 997.898499,687.735718 
	C1000.453064,694.805054 997.759155,700.565918 990.158020,702.083923 
	C981.039734,703.904846 971.725037,704.743713 962.494263,705.999390 
	C958.882812,706.490723 955.268311,706.959534 951.196289,707.499390 
	C950.149597,717.276855 949.011475,726.981750 948.087891,736.707031 
	C945.238159,766.715698 942.061768,796.701111 939.788513,826.754272 
	C937.627991,855.317993 936.052979,883.941345 935.001709,912.567139 
	C934.495422,926.352661 931.084106,931.911011 914.497437,930.867188 
	C904.638855,930.246765 895.762024,926.445984 887.974670,920.343140 
	C883.821838,917.088562 881.544617,912.905884 881.895325,907.369263 
	C884.201355,870.965088 886.101074,834.531799 888.779358,798.155640 
	C890.857727,769.927429 893.874634,741.768311 896.551086,712.746704 
	C891.605469,713.259338 886.753052,713.746521 881.904785,714.272095 
	C879.753967,714.505249 877.615356,714.849182 875.464905,715.086487 
	C860.375183,716.751709 853.341064,712.416870 847.642822,697.963379 
	C844.743774,690.609985 848.125122,684.447327 856.534119,683.019226 
	C868.177429,681.041809 879.918823,679.642517 891.617249,677.988464 
	C894.412537,677.593262 897.203918,677.169678 900.429382,676.695740 
	C901.589966,665.949951 902.769409,655.233093 903.899841,644.511047 
	C905.279114,631.428223 906.573914,618.336304 907.991943,605.257690 
	C908.668335,599.018860 912.083252,595.136230 918.312805,594.089966 
	C932.334900,591.734802 944.636719,595.846252 955.413391,604.806091 
	C959.103271,607.873840 960.604309,611.959045 960.114258,616.839233 
	C958.866455,629.266968 957.742004,641.707092 956.492798,654.593994 
z"/>
<path fill="#3F3F3F" opacity="1.000000" stroke="none" 
	d="
M1013.406250,666.336548 
	C1017.681335,664.443848 1021.540649,662.410339 1025.635498,661.131104 
	C1032.941162,658.848694 1039.781616,659.667175 1046.638672,663.787354 
	C1061.739014,672.860779 1077.105591,681.505188 1092.543945,689.996460 
	C1101.859131,695.120056 1111.943237,697.807312 1122.719727,697.358704 
	C1130.206665,697.046997 1136.355713,693.963501 1142.069336,689.197205 
	C1152.145020,680.792236 1164.161987,677.811462 1177.011597,678.774109 
	C1186.017334,679.448914 1188.558716,685.274475 1183.433472,693.073303 
	C1176.557617,703.535706 1167.521729,711.894043 1156.609985,718.021606 
	C1126.179077,735.110291 1095.095215,734.892517 1063.591064,721.140808 
	C1061.961670,720.429626 1060.303589,719.783875 1058.800903,719.166077 
	C1060.053345,740.585266 1061.293823,761.799744 1062.548340,783.255798 
	C1073.034668,783.790771 1083.664917,784.245300 1094.283325,784.895325 
	C1110.239868,785.872131 1126.198730,786.853638 1142.134033,788.116272 
	C1147.406982,788.534058 1153.396851,789.085022 1155.498291,795.051025 
	C1157.626587,801.093506 1153.640503,805.539612 1149.642212,809.442627 
	C1142.534546,816.380798 1134.159546,820.007385 1123.964722,819.465454 
	C1104.672485,818.439941 1085.363159,817.734192 1066.060181,816.912903 
	C1064.425049,816.843384 1062.784546,816.903687 1060.803711,816.903687 
	C1059.863525,825.515808 1059.287231,833.968201 1057.959717,842.300903 
	C1055.082764,860.361389 1052.104248,878.417664 1048.493652,896.339905 
	C1047.714844,900.205933 1044.773193,904.325867 1041.649780,906.899231 
	C1032.652100,914.312256 1021.915222,917.876221 1010.229370,917.803162 
	C999.044434,917.733276 995.964966,913.590637 998.367249,902.776733 
	C1004.587463,874.776062 1008.529297,846.459045 1010.099609,817.816040 
	C1010.161926,816.679993 1010.107483,815.537476 1010.107483,814.088745 
	C1006.554932,813.825134 1003.085449,813.824402 999.710754,813.258545 
	C994.330688,812.356506 992.640381,809.347229 994.645813,804.292175 
	C997.079468,798.157776 1001.519714,793.712280 1007.388733,790.820068 
	C1010.128418,789.469910 1011.020203,787.727539 1010.964233,784.623779 
	C1010.414246,754.101929 1007.934265,723.774231 1002.320862,693.741577 
	C1001.688599,690.358521 1000.713440,687.040833 1000.015991,683.668274 
	C999.095947,679.219299 1001.257019,675.830627 1004.331787,673.095886 
	C1007.048889,670.679260 1010.159668,668.705200 1013.406250,666.336548 
z"/>
<path fill="#3F3F3F" opacity="1.000000" stroke="none" 
	d="
M1396.607178,718.454346 
	C1401.860596,675.196594 1406.926636,632.368347 1412.397827,589.591919 
	C1412.879272,585.828735 1415.201904,581.464172 1418.064209,578.997681 
	C1427.018555,571.281677 1437.822998,567.373352 1449.698364,567.247803 
	C1459.445923,567.144714 1462.862305,570.746826 1461.934692,580.322632 
	C1458.884033,611.818054 1455.725220,643.304382 1452.361084,674.767700 
	C1449.067993,705.565674 1445.467407,736.330750 1442.010742,767.111206 
	C1438.126587,801.696777 1434.244751,836.282654 1430.379639,870.870361 
	C1429.510498,878.648987 1428.494507,886.420593 1427.950439,894.223633 
	C1427.433105,901.642395 1424.148193,907.160645 1418.007080,911.163269 
	C1408.714111,917.220398 1398.757080,920.901978 1387.445190,920.093750 
	C1378.297729,919.440247 1374.830688,915.616760 1375.813721,906.597717 
	C1381.768311,851.967651 1387.777222,797.343567 1393.783081,742.719116 
	C1394.656616,734.774109 1395.610962,726.837891 1396.607178,718.454346 
z"/>
<path fill="#3F3F3F" opacity="1.000000" stroke="none" 
	d="
M1526.065186,840.218750 
	C1524.923828,862.490479 1523.670532,884.281799 1522.744507,906.087036 
	C1522.421875,913.683289 1519.021729,919.036621 1512.729492,922.809021 
	C1503.381226,928.413574 1493.483887,931.956055 1482.358887,930.164368 
	C1474.833496,928.952332 1471.809814,925.180481 1472.226562,917.353760 
	C1473.555298,892.398193 1474.984741,867.447937 1476.376709,842.495728 
	C1478.251221,808.893982 1480.122559,775.292053 1482.004028,741.690674 
	C1482.879639,726.054260 1483.830322,710.421814 1484.631226,694.781677 
	C1484.879883,689.924561 1486.950684,686.089111 1490.649902,683.210144 
	C1500.038452,675.903259 1510.611206,671.996155 1522.652710,672.859619 
	C1531.623169,673.502991 1534.750000,677.136108 1534.275757,686.015625 
	C1531.539307,737.258057 1528.812134,788.501099 1526.065186,840.218750 
z"/>
<path fill="#404040" opacity="1.000000" stroke="none" 
	d="
M1504.082153,593.031799 
	C1511.783325,589.481262 1519.441162,587.485291 1527.610962,588.084778 
	C1535.953491,588.696960 1538.776733,592.345215 1537.506104,600.542358 
	C1536.003296,610.235962 1534.786011,619.980896 1532.976685,629.615662 
	C1532.424927,632.552795 1530.946289,635.848022 1528.831177,637.868286 
	C1519.096558,647.166992 1507.331421,651.621521 1493.824585,650.174072 
	C1485.831665,649.317505 1482.973755,645.451111 1484.086060,637.652954 
	C1485.517822,627.615662 1487.107910,617.588501 1489.103149,607.652039 
	C1489.651611,604.920715 1491.402954,601.998535 1493.466553,600.106384 
	C1496.477783,597.345276 1500.270386,595.436279 1504.082153,593.031799 
z"/>
<path fill="#FDFDFD" opacity="1.000000" stroke="none" 
	d="
M704.983521,728.996216 
	C704.991272,721.731384 704.991272,714.965515 704.991272,707.419067 
	C727.729004,714.000549 749.354309,720.260071 771.563110,726.688477 
	C770.288330,728.845093 769.403564,731.245239 767.780579,732.937073 
	C758.934937,742.157898 750.314026,751.655396 740.839417,760.196411 
	C729.025757,770.846008 716.456970,780.657898 703.452148,791.464783 
	C703.974243,770.228760 704.475037,749.861938 704.983521,728.996216 
z"/>
<path fill="#FCFCFC" opacity="1.000000" stroke="none" 
	d="
M379.692108,673.314819 
	C392.044312,674.388123 403.939148,675.408325 416.175018,676.457703 
	C396.510681,693.737427 377.016174,710.867920 357.211914,728.270569 
	C355.712128,709.340820 354.224030,690.558228 352.680237,671.072754 
	C361.554321,671.804260 370.394501,672.533020 379.692108,673.314819 
z"/>
<path fill="#FEFEFE" opacity="1.000000" stroke="none" 
	d="
M1621.533691,857.335999 
	C1608.565674,813.459534 1614.345215,771.766785 1633.691284,731.407349 
	C1635.870605,726.860779 1638.537842,722.337891 1633.808350,717.738892 
	C1640.418823,714.648254 1646.958496,715.253479 1654.762939,719.999512 
	C1670.709839,729.697083 1679.352295,744.385193 1683.000488,762.282043 
	C1688.383179,788.687866 1683.052368,813.522156 1671.420410,837.298035 
	C1663.786133,852.902710 1655.345703,867.999756 1641.613647,879.299133 
	C1636.975830,883.115356 1635.750122,883.364136 1632.583252,878.341675 
	C1628.445923,871.780518 1625.278931,864.607422 1621.533691,857.335999 
z"/>
<path fill="#FEFEFE" opacity="1.000000" stroke="none" 
	d="
M572.742981,841.701416 
	C565.628967,855.173462 558.103760,867.891357 546.769714,877.876221 
	C540.395020,883.492065 539.121033,883.387817 534.270813,876.190674 
	C526.202209,864.217834 522.182861,850.738464 520.003479,836.647461 
	C514.269226,799.572632 520.985229,764.501038 537.297241,731.032104 
	C539.558411,726.392822 541.915039,721.908325 536.991577,717.383972 
	C544.612183,714.458435 551.382324,715.944031 557.803345,719.771179 
	C573.330688,729.025757 582.145203,743.063354 585.991211,760.364990 
	C592.037720,787.566101 586.664185,813.184143 574.675232,837.793335 
	C574.093201,838.987976 573.499268,840.176819 572.742981,841.701416 
z"/>
<path fill="#FEFEFE" opacity="1.000000" stroke="none" 
	d="
M1255.763306,725.504639 
	C1255.289307,722.494263 1254.714966,719.868469 1254.090698,717.014587 
	C1260.458130,714.482971 1267.135864,715.800781 1273.394531,719.466736 
	C1290.708130,729.607849 1299.600830,745.411011 1303.016235,764.654358 
	C1308.182007,793.760010 1300.482422,820.354065 1286.743774,845.680115 
	C1280.051392,858.016785 1272.604492,869.811523 1261.624512,878.930298 
	C1256.433960,883.241150 1255.313477,883.194641 1251.152954,877.297974 
	C1243.537231,866.504333 1239.363281,854.304260 1236.960693,841.424500 
	C1229.870239,803.415405 1236.177124,767.329590 1252.557739,732.686462 
	C1253.622437,730.434692 1254.629272,728.155640 1255.763306,725.504639 
z"/>
</svg>